<svg xmlns="http://www.w3.org/2000/svg" version="1.1" xmlns:xlink="http://www.w3.org/1999/xlink" xmlns:svgjs="http://svgjs.dev/svgjs" width="1500" height="1500" viewBox="0 0 1500 1500"><rect width="1500" height="1500" fill="#282634"></rect><g transform="matrix(0.6666666666666666,0,0,0.6666666666666666,249.39393939393938,676.4587508352695)"><svg viewBox="0 0 396 58" data-background-color="#282634" preserveAspectRatio="xMidYMid meet" height="219" width="1500" xmlns="http://www.w3.org/2000/svg" xmlns:xlink="http://www.w3.org/1999/xlink"><g id="tight-bounds" transform="matrix(1,0,0,1,0.2400000000000091,0.21501679146828678)"><svg viewBox="0 0 395.52 57.56996641706342" height="57.56996641706342" width="395.52"><g><svg viewBox="0 0 395.52 57.56996641706342" height="57.56996641706342" width="395.52"><g><svg viewBox="0 0 492.3309479642783 71.66129687597214" height="57.56996641706342" width="395.52"><g><rect width="2.7520200943722872" height="52.112592880138926" x="86.85468678516186" y="9.774351997916607" fill="#ff4057" opacity="1" stroke-width="0" stroke="transparent" fill-opacity="1" class="rect-qz-0" data-fill-palette-color="primary" rx="1%" id="qz-0" data-palette-color="#ff4057"></rect></g><g transform="matrix(1,0,0,1,96.81094796427836,9.90398531353884)"><svg viewBox="0 0 395.52 51.85332624889446" height="51.85332624889446" width="395.52"><g id="textblocktransform"><svg viewBox="0 0 395.52 51.85332624889446" height="51.85332624889446" width="395.52" id="textblock"><g><svg viewBox="0 0 395.52 30.516617888918002" height="30.516617888918002" width="395.52"><g transform="matrix(1,0,0,1,0,0)"><svg width="395.52" viewBox="2 -35.35 473.3049371163504 35.85" height="30.516617888918002" data-palette-color="#ff4057"><g transform="matrix(1,0,0,1,0,0)"><g><svg width="15.229958077566968" viewBox="3.16 -36.36 72.23 36.36" height="7.667392857142859" data-palette-color="#ff4057" id="scriptelement" x="460.07497903878345" y="-35.35"><path d="M10.85 0L3.16 0 3.16-36.36 17.51-36.36Q21.63-36.36 24.55-34.9 27.47-33.43 29-30.76 30.54-28.09 30.54-24.49L30.54-24.49Q30.54-20.86 28.98-18.26 27.41-15.66 24.46-14.28 21.5-12.89 17.31-12.89L17.31-12.89 7.71-12.89 7.71-19.07 16.07-19.07Q18.27-19.07 19.73-19.67 21.18-20.28 21.9-21.48 22.62-22.69 22.62-24.49L22.62-24.49Q22.62-26.3 21.9-27.54 21.18-28.78 19.72-29.43 18.25-30.08 16.03-30.08L16.03-30.08 10.85-30.08 10.85 0ZM14.51-16.55L22.8-16.55 31.84 0 23.35 0 14.51-16.55ZM35.97 0L35.97-36.36 45.45-36.36 55.47-11.93 55.89-11.93 65.91-36.36 75.39-36.36 75.39 0 67.93 0 67.93-23.67 67.63-23.67 58.22-0.18 53.14-0.18 43.73-23.76 43.43-23.76 43.43 0 35.97 0Z" opacity="1" transform="matrix(1,0,0,1,0,0)" fill="#ff4057" class="undefined-123" data-fill-palette-color="primary" id="yy-123"></path></svg></g></g><g class="wordmark-text-0" data-fill-palette-color="primary" id="text-0"><path d="M11.2-0.05L2.25 0Q2 0 2-0.25L2-0.25 2.1-34.6Q2.1-34.8 2.3-34.8L2.3-34.8 11.65-34.85Q14.4-34.9 16.68-33.55 18.95-32.2 20.3-29.93 21.65-27.65 21.65-24.9L21.65-24.9 21.65-10.55Q21.65-7.65 20.25-5.28 18.85-2.9 16.5-1.5 14.15-0.1 11.2-0.05L11.2-0.05ZM8.15-28.8L8.1-6.15 11.2-6.15Q13.05-6.15 14.33-7.45 15.6-8.75 15.6-10.55L15.6-10.55 15.6-24.95Q15.6-26.55 14.43-27.73 13.25-28.9 11.65-28.85L11.65-28.85 8.15-28.8ZM23.9-0.25L23.9-0.25 30.1-34.6Q30.15-34.8 30.35-34.8L30.35-34.8 37.6-34.8Q37.8-34.8 37.85-34.6L37.85-34.6 43.8-0.25Q43.85 0 43.6 0L43.6 0 38.05 0Q37.85 0 37.8-0.25L37.8-0.25 37.25-3.9 30.45-3.9 29.9-0.25Q29.85 0 29.65 0L29.65 0 24.1 0Q23.9 0 23.9-0.25ZM33.7-23.3L31.45-9.25 36.25-9.25 34.2-23.3 33.9-25.15 33.7-23.3ZM58.6 0L52.55 0Q52.35 0 52.3-0.25L52.3-0.25 45.4-34.6Q45.35-34.8 45.6-34.8L45.6-34.8 51.25-34.8Q51.45-34.8 51.5-34.6L51.5-34.6 55.6-11.7 59.6-34.6Q59.65-34.8 59.85-34.8L59.85-34.8 65.45-34.8Q65.7-34.8 65.65-34.6L65.65-34.6 58.85-0.25Q58.8 0 58.6 0L58.6 0ZM66.89-0.25L66.89-0.25 73.09-34.6Q73.14-34.8 73.34-34.8L73.34-34.8 80.59-34.8Q80.79-34.8 80.84-34.6L80.84-34.6 86.79-0.25Q86.84 0 86.59 0L86.59 0 81.04 0Q80.84 0 80.79-0.25L80.79-0.25 80.24-3.9 73.44-3.9 72.89-0.25Q72.84 0 72.64 0L72.64 0 67.09 0Q66.89 0 66.89-0.25ZM76.69-23.3L74.44-9.25 79.24-9.25 77.19-23.3 76.89-25.15 76.69-23.3ZM99.19 0.5L99.19 0.5Q96.49 0.5 94.27-0.88 92.04-2.25 90.69-4.53 89.34-6.8 89.34-9.55L89.34-9.55 89.39-25.4Q89.39-28.15 90.72-30.4 92.04-32.65 94.29-34 96.54-35.35 99.19-35.35L99.19-35.35Q101.89-35.35 104.09-34 106.29-32.65 107.62-30.4 108.94-28.15 108.94-25.4L108.94-25.4 108.99-9.55Q108.99-6.8 107.67-4.53 106.34-2.25 104.12-0.88 101.89 0.5 99.19 0.5ZM99.19-5.55L99.19-5.55Q100.69-5.55 101.82-6.78 102.94-8 102.94-9.55L102.94-9.55 102.89-25.4Q102.89-27.05 101.84-28.2 100.79-29.35 99.19-29.35L99.19-29.35Q97.64-29.35 96.54-28.23 95.44-27.1 95.44-25.4L95.44-25.4 95.44-9.55Q95.44-7.9 96.54-6.73 97.64-5.55 99.19-5.55Z" fill="#ff4057" data-fill-palette-color="primary"></path><path d="M134.74 0L118.59 0Q118.39 0 118.39-0.25L118.39-0.25 118.44-34.55Q118.44-34.8 118.69-34.8L118.69-34.8 124.24-34.8Q124.49-34.8 124.49-34.55L124.49-34.55 124.44-6.15 134.74-6.15Q134.99-6.15 134.99-5.9L134.99-5.9 134.99-0.25Q134.99 0 134.74 0L134.74 0ZM147.49 0.5L147.49 0.5Q144.79 0.5 142.56-0.88 140.34-2.25 138.99-4.53 137.63-6.8 137.63-9.55L137.63-9.55 137.69-25.4Q137.69-28.15 139.01-30.4 140.34-32.65 142.58-34 144.83-35.35 147.49-35.35L147.49-35.35Q150.19-35.35 152.39-34 154.58-32.65 155.91-30.4 157.24-28.15 157.24-25.4L157.24-25.4 157.29-9.55Q157.29-6.8 155.96-4.53 154.64-2.25 152.41-0.88 150.19 0.5 147.49 0.5ZM147.49-5.55L147.49-5.55Q148.99-5.55 150.11-6.78 151.24-8 151.24-9.55L151.24-9.55 151.19-25.4Q151.19-27.05 150.14-28.2 149.08-29.35 147.49-29.35L147.49-29.35Q145.94-29.35 144.83-28.23 143.74-27.1 143.74-25.4L143.74-25.4 143.74-9.55Q143.74-7.9 144.83-6.73 145.94-5.55 147.49-5.55ZM170.28 0.5L170.28 0.5Q167.53 0.5 165.31-0.88 163.08-2.25 161.78-4.55 160.48-6.85 160.48-9.7L160.48-9.7 160.53-25.3Q160.53-28.05 161.81-30.33 163.08-32.6 165.31-33.98 167.53-35.35 170.28-35.35L170.28-35.35Q173.03-35.35 175.23-34 177.43-32.65 178.73-30.38 180.03-28.1 180.03-25.3L180.03-25.3 180.03-23Q180.03-22.8 179.83-22.8L179.83-22.8 174.23-22.8Q174.03-22.8 174.03-23L174.03-23 174.03-25.3Q174.03-26.95 172.96-28.15 171.88-29.35 170.28-29.35L170.28-29.35Q168.48-29.35 167.53-28.13 166.58-26.9 166.58-25.3L166.58-25.3 166.58-9.7Q166.58-7.85 167.66-6.7 168.73-5.55 170.28-5.55L170.28-5.55Q171.88-5.55 172.96-6.83 174.03-8.1 174.03-9.7L174.03-9.7 174.03-12Q174.03-12.2 174.23-12.2L174.23-12.2 179.88-12.2Q180.08-12.2 180.08-12L180.08-12 180.08-9.7Q180.08-6.85 178.76-4.55 177.43-2.25 175.23-0.88 173.03 0.5 170.28 0.5ZM182.03-0.25L182.03-0.25 188.23-34.6Q188.28-34.8 188.48-34.8L188.48-34.8 195.73-34.8Q195.93-34.8 195.98-34.6L195.98-34.6 201.93-0.25Q201.98 0 201.73 0L201.73 0 196.18 0Q195.98 0 195.93-0.25L195.93-0.25 195.38-3.9 188.58-3.9 188.03-0.25Q187.98 0 187.78 0L187.78 0 182.23 0Q182.03 0 182.03-0.25ZM191.83-23.3L189.58-9.25 194.38-9.25 192.33-23.3 192.03-25.15 191.83-23.3ZM221.43 0L205.28 0Q205.08 0 205.08-0.25L205.08-0.25 205.13-34.55Q205.13-34.8 205.38-34.8L205.38-34.8 210.93-34.8Q211.18-34.8 211.18-34.55L211.18-34.55 211.13-6.15 221.43-6.15Q221.68-6.15 221.68-5.9L221.68-5.9 221.68-0.25Q221.68 0 221.43 0L221.43 0Z" fill="#dcdcdc" data-fill-palette-color="secondary"></path><path d="M240.28 0.5L240.28 0.5Q237.53 0.5 235.3-0.88 233.08-2.25 231.78-4.55 230.48-6.85 230.48-9.7L230.48-9.7 230.53-25.3Q230.53-28.05 231.8-30.33 233.08-32.6 235.3-33.98 237.53-35.35 240.28-35.35L240.28-35.35Q243.03-35.35 245.23-34 247.43-32.65 248.73-30.38 250.03-28.1 250.03-25.3L250.03-25.3 250.03-23Q250.03-22.8 249.83-22.8L249.83-22.8 244.23-22.8Q244.03-22.8 244.03-23L244.03-23 244.03-25.3Q244.03-26.95 242.95-28.15 241.88-29.35 240.28-29.35L240.28-29.35Q238.48-29.35 237.53-28.13 236.58-26.9 236.58-25.3L236.58-25.3 236.58-9.7Q236.58-7.85 237.65-6.7 238.73-5.55 240.28-5.55L240.28-5.55Q241.88-5.55 242.95-6.83 244.03-8.1 244.03-9.7L244.03-9.7 244.03-12Q244.03-12.2 244.23-12.2L244.23-12.2 249.88-12.2Q250.08-12.2 250.08-12L250.08-12 250.08-9.7Q250.08-6.85 248.75-4.55 247.43-2.25 245.23-0.88 243.03 0.5 240.28 0.5ZM259.58 0L253.93 0Q253.73 0 253.73-0.25L253.73-0.25 253.83-34.6Q253.83-34.8 254.02-34.8L254.02-34.8 264.13-34.8Q266.83-34.8 269.1-33.48 271.38-32.15 272.73-29.93 274.08-27.7 274.08-24.9L274.08-24.9Q274.08-23.05 273.52-21.58 272.98-20.1 272.23-19.07 271.48-18.05 270.88-17.55L270.88-17.55Q273.58-14.55 273.58-10.5L273.58-10.5 273.63-0.25Q273.63 0 273.38 0L273.38 0 267.73 0Q267.52 0 267.52-0.15L267.52-0.15 267.52-10.5Q267.52-12.3 266.25-13.63 264.98-14.95 263.13-14.95L263.13-14.95 259.83-14.95 259.77-0.25Q259.77 0 259.58 0L259.58 0ZM259.83-28.8L259.83-20.95 264.13-20.95Q265.68-20.95 266.88-22.1 268.08-23.25 268.08-24.9L268.08-24.9Q268.08-26.5 266.9-27.65 265.73-28.8 264.13-28.8L264.13-28.8 259.83-28.8ZM276.12-0.25L276.12-0.25 282.32-34.6Q282.37-34.8 282.57-34.8L282.57-34.8 289.82-34.8Q290.02-34.8 290.07-34.6L290.07-34.6 296.02-0.25Q296.07 0 295.82 0L295.82 0 290.27 0Q290.07 0 290.02-0.25L290.02-0.25 289.47-3.9 282.67-3.9 282.12-0.25Q282.07 0 281.87 0L281.87 0 276.32 0Q276.12 0 276.12-0.25ZM285.92-23.3L283.67-9.25 288.47-9.25 286.42-23.3 286.12-25.15 285.92-23.3ZM305.02 0L299.42 0Q299.17 0 299.17-0.25L299.17-0.25 299.27-34.6Q299.27-34.8 299.47-34.8L299.47-34.8 315.47-34.8Q315.72-34.8 315.72-34.6L315.72-34.6 315.72-28.95Q315.72-28.75 315.52-28.75L315.52-28.75 305.27-28.75 305.27-21 315.52-21Q315.72-21 315.72-20.75L315.72-20.75 315.77-15.1Q315.77-14.9 315.52-14.9L315.52-14.9 305.27-14.9 305.27-0.25Q305.27 0 305.02 0L305.02 0ZM330.87 0L325.22 0Q325.02 0 325.02-0.25L325.02-0.25 325.02-28.75 318.52-28.75Q318.27-28.75 318.27-29L318.27-29 318.32-34.6Q318.32-34.8 318.52-34.8L318.52-34.8 337.52-34.8Q337.77-34.8 337.77-34.6L337.77-34.6 337.77-29Q337.77-28.75 337.57-28.75L337.57-28.75 331.02-28.75 331.07-0.25Q331.07 0 330.87 0L330.87 0Z" fill="#ff4057" data-fill-palette-color="primary"></path><path d="M355.67 0.5L355.67 0.5Q352.97 0.5 350.74-0.88 348.52-2.25 347.19-4.53 345.87-6.8 345.87-9.55L345.87-9.55 345.87-11.85Q345.87-12.1 346.12-12.1L346.12-12.1 351.72-12.1Q351.92-12.1 351.92-11.85L351.92-11.85 351.92-9.55Q351.92-7.9 353.02-6.73 354.12-5.55 355.67-5.55L355.67-5.55Q357.22-5.55 358.32-6.75 359.42-7.95 359.42-9.55L359.42-9.55Q359.42-11.4 357.02-12.75L357.02-12.75Q356.22-13.2 354.52-14.15 352.82-15.1 351.32-15.95L351.32-15.95Q348.57-17.55 347.24-19.98 345.92-22.4 345.92-25.45L345.92-25.45Q345.92-28.25 347.27-30.48 348.62-32.7 350.84-34 353.07-35.3 355.67-35.3L355.67-35.3Q358.32-35.3 360.54-33.98 362.77-32.65 364.09-30.43 365.42-28.2 365.42-25.45L365.42-25.45 365.42-21.35Q365.42-21.15 365.22-21.15L365.22-21.15 359.62-21.15Q359.42-21.15 359.42-21.35L359.42-21.35 359.37-25.45Q359.37-27.2 358.27-28.3 357.17-29.4 355.67-29.4L355.67-29.4Q354.12-29.4 353.02-28.23 351.92-27.05 351.92-25.45L351.92-25.45Q351.92-23.8 352.62-22.7 353.32-21.6 355.17-20.6L355.17-20.6Q355.42-20.45 356.14-20.08 356.87-19.7 357.72-19.23 358.57-18.75 359.24-18.4 359.92-18.05 360.07-17.95L360.07-17.95Q362.57-16.55 364.02-14.53 365.47-12.5 365.47-9.55L365.47-9.55Q365.47-6.7 364.14-4.42 362.82-2.15 360.59-0.83 358.37 0.5 355.67 0.5ZM379.61 0L373.97 0Q373.77 0 373.77-0.25L373.77-0.25 373.77-28.75 367.27-28.75Q367.02-28.75 367.02-29L367.02-29 367.07-34.6Q367.07-34.8 367.27-34.8L367.27-34.8 386.27-34.8Q386.52-34.8 386.52-34.6L386.52-34.6 386.52-29Q386.52-28.75 386.32-28.75L386.32-28.75 379.77-28.75 379.82-0.25Q379.82 0 379.61 0L379.61 0ZM398.21 0.5L398.21 0.5Q395.51 0.5 393.29-0.88 391.06-2.25 389.71-4.53 388.36-6.8 388.36-9.55L388.36-9.55 388.41-25.4Q388.41-28.15 389.74-30.4 391.06-32.65 393.31-34 395.56-35.35 398.21-35.35L398.21-35.35Q400.91-35.35 403.11-34 405.31-32.65 406.64-30.4 407.96-28.15 407.96-25.4L407.96-25.4 408.01-9.55Q408.01-6.8 406.69-4.53 405.36-2.25 403.14-0.88 400.91 0.5 398.21 0.5ZM398.21-5.55L398.21-5.55Q399.71-5.55 400.84-6.78 401.96-8 401.96-9.55L401.96-9.55 401.91-25.4Q401.91-27.05 400.86-28.2 399.81-29.35 398.21-29.35L398.21-29.35Q396.66-29.35 395.56-28.23 394.46-27.1 394.46-25.4L394.46-25.4 394.46-9.55Q394.46-7.9 395.56-6.73 396.66-5.55 398.21-5.55ZM417.66 0L412.01 0Q411.81 0 411.81-0.25L411.81-0.25 411.91-34.6Q411.91-34.8 412.11-34.8L412.11-34.8 422.21-34.8Q424.91-34.8 427.19-33.48 429.46-32.15 430.81-29.93 432.16-27.7 432.16-24.9L432.16-24.9Q432.16-23.05 431.61-21.58 431.06-20.1 430.31-19.07 429.56-18.05 428.96-17.55L428.96-17.55Q431.66-14.55 431.66-10.5L431.66-10.5 431.71-0.25Q431.71 0 431.46 0L431.46 0 425.81 0Q425.61 0 425.61-0.15L425.61-0.15 425.61-10.5Q425.61-12.3 424.34-13.63 423.06-14.95 421.21-14.95L421.21-14.95 417.91-14.95 417.86-0.25Q417.86 0 417.66 0L417.66 0ZM417.91-28.8L417.91-20.95 422.21-20.95Q423.76-20.95 424.96-22.1 426.16-23.25 426.16-24.9L426.16-24.9Q426.16-26.5 424.99-27.65 423.81-28.8 422.21-28.8L422.21-28.8 417.91-28.8ZM452.26 0L436.11 0Q435.91 0 435.91-0.25L435.91-0.25 435.96-34.6Q435.96-34.8 436.16-34.8L436.16-34.8 452.21-34.8Q452.41-34.8 452.41-34.55L452.41-34.55 452.41-28.95Q452.41-28.75 452.21-28.75L452.21-28.75 441.96-28.75 441.96-20.95 452.21-20.95Q452.41-20.95 452.41-20.75L452.41-20.75 452.46-15.1Q452.46-14.9 452.26-14.9L452.26-14.9 441.96-14.9 441.96-6.15 452.26-6.15Q452.46-6.15 452.46-5.9L452.46-5.9 452.46-0.2Q452.46 0 452.26 0L452.26 0Z" fill="#dcdcdc" data-fill-palette-color="secondary"></path></g></svg></g></svg></g><g transform="matrix(1,0,0,1,0,37.72085897366221)"><svg viewBox="0 0 232.209792 14.132467275232255" height="14.132467275232255" width="232.209792"><g transform="matrix(1,0,0,1,0,0)"><svg width="232.209792" viewBox="2.95 -36.4 791.06 48.15" height="14.132467275232255" data-palette-color="#dcdcdc"><path d="M25-3.85L25.15-0.55Q20 0.5 15.9 0.5 11.8 0.5 9.28-0.63 6.75-1.75 5.38-4.13 4-6.5 3.48-9.58 2.95-12.65 2.95-17.25 2.95-21.85 3.48-24.98 4-28.1 5.38-30.5 6.75-32.9 9.25-34 11.75-35.1 15.75-35.1 19.75-35.1 25.15-34L25.15-34 25-30.75Q19.95-31.65 16-31.65L16-31.65Q10.5-31.65 8.72-28.38 6.95-25.1 6.95-17.2L6.95-17.2Q6.95-13.25 7.28-10.85 7.6-8.45 8.55-6.53 9.5-4.6 11.33-3.78 13.15-2.95 16.68-2.95 20.2-2.95 25-3.85L25-3.85ZM34.35 0L30.6 0 30.6-25 34.3-25 34.3-21.6Q38.65-24.6 43.45-25.55L43.45-25.55 43.45-21.75Q41.35-21.35 39.07-20.5 36.8-19.65 35.6-19L35.6-19 34.35-18.35 34.35 0ZM65.55-17.45L65.55-17.45 65.55-4.65Q65.7-2.8 68.45-2.45L68.45-2.45 68.3 0.5Q64.34 0.5 62.34-1.5L62.34-1.5Q57.84 0.5 53.34 0.5L53.34 0.5Q49.9 0.5 48.09-1.45 46.3-3.4 46.3-7.05 46.3-10.7 48.15-12.43 50-14.15 53.95-14.55L53.95-14.55 61.8-15.3 61.8-17.45Q61.8-20 60.7-21.1 59.59-22.2 57.7-22.2L57.7-22.2Q53.7-22.2 49.4-21.7L49.4-21.7 47.84-21.55 47.7-24.4Q53.2-25.5 57.45-25.5 61.7-25.5 63.62-23.55 65.55-21.6 65.55-17.45ZM50.15-7.25L50.15-7.25Q50.15-2.65 53.95-2.65L53.95-2.65Q57.34-2.65 60.65-3.8L60.65-3.8 61.8-4.2 61.8-12.45 54.4-11.75Q52.15-11.55 51.15-10.45 50.15-9.35 50.15-7.25ZM84.99-21.75L77.74-21.75 77.74 0 73.99 0 73.99-21.75 70.84-21.75 70.84-25 73.99-25 73.99-27.25Q73.99-32.55 75.49-34.48 76.99-36.4 80.74-36.4L80.74-36.4 85.79-36.05 85.74-32.95Q82.94-33.05 81.12-33.05 79.29-33.05 78.52-31.85 77.74-30.65 77.74-27.2L77.74-27.2 77.74-25 84.99-25 84.99-21.75ZM102.44-25L102.44-21.75 94.49-21.75 94.49-9.8Q94.49-5.5 95.11-4.15 95.74-2.8 98.09-2.8L98.09-2.8 102.54-3.1 102.79 0Q99.44 0.55 97.69 0.55L97.69 0.55Q93.79 0.55 92.29-1.35 90.79-3.25 90.79-8.6L90.79-8.6 90.79-21.75 87.24-21.75 87.24-25 90.79-25 90.79-32.65 94.49-32.65 94.49-25 102.44-25ZM110.79 0L107.04 0 107.04-25 110.79-25 110.79 0ZM110.79-30.65L107.04-30.65 107.04-35 110.79-35 110.79-30.65ZM121.73-20.3L121.73 0 117.98 0 117.98-25 121.69-25 121.69-23.25Q125.74-25.5 129.44-25.5L129.44-25.5Q134.44-25.5 136.16-22.8 137.88-20.1 137.88-13.2L137.88-13.2 137.88 0 134.19 0 134.19-13.1Q134.19-18.3 133.16-20.23 132.13-22.15 128.78-22.15L128.78-22.15Q127.19-22.15 125.41-21.68 123.64-21.2 122.69-20.75L122.69-20.75 121.73-20.3ZM154.48 11.75L154.48 11.75Q148.48 11.75 146.11 10.13 143.73 8.5 143.73 4.2L143.73 4.2Q143.73 2.15 144.63 0.88 145.53-0.4 147.68-2L147.68-2Q146.28-2.95 146.28-5.45L146.28-5.45Q146.28-6.3 147.53-8.6L147.53-8.6 147.98-9.4Q144.03-11.2 144.03-16.95L144.03-16.95Q144.03-25.5 153.38-25.5L153.38-25.5Q155.78-25.5 157.83-25L157.83-25 158.58-24.85 165.98-25.05 165.98-21.85 161.23-21.95Q162.88-20.3 162.88-16.95L162.88-16.95Q162.88-12.25 160.56-10.38 158.23-8.5 153.23-8.5L153.23-8.5Q151.88-8.5 150.78-8.7L150.78-8.7Q149.88-6.5 149.88-5.85L149.88-5.85Q149.88-4.3 150.83-3.93 151.78-3.55 156.58-3.55 161.38-3.55 163.48-2.05 165.58-0.55 165.58 3.8L165.58 3.8Q165.58 11.75 154.48 11.75ZM147.43 3.9L147.43 3.9Q147.43 6.55 148.91 7.58 150.38 8.6 154.36 8.6 158.33 8.6 160.06 7.5 161.78 6.4 161.78 3.83 161.78 1.25 160.53 0.5 159.28-0.25 155.63-0.25L155.63-0.25 150.23-0.5Q148.58 0.7 148.01 1.6 147.43 2.5 147.43 3.9ZM147.78-16.95Q147.78-14 149.11-12.75 150.43-11.5 153.48-11.5 156.53-11.5 157.83-12.75 159.13-14 159.13-16.98 159.13-19.95 157.83-21.2 156.53-22.45 153.48-22.45 150.43-22.45 149.11-21.18 147.78-19.9 147.78-16.95ZM194.53 0L194.53 0 182.18 0 182.18-34.6 194.53-34.6Q202.98-34.6 205.73-27.9L205.73-27.9Q207.33-24.05 207.33-17.8L207.33-17.8Q207.33-4.75 200.83-1.35L200.83-1.35Q198.23 0 194.53 0ZM203.38-17.8L203.38-17.8Q203.38-27.75 198.93-30.2L198.93-30.2Q197.13-31.2 194.53-31.2L194.53-31.2 186.03-31.2 186.03-3.4 194.53-3.4Q203.38-3.4 203.38-17.8ZM217.53 0L213.78 0 213.78-25 217.48-25 217.48-21.6Q221.83-24.6 226.63-25.55L226.63-25.55 226.63-21.75Q224.53-21.35 222.25-20.5 219.98-19.65 218.78-19L218.78-19 217.53-18.35 217.53 0ZM247.57-3.1L247.57-3.1 249.02-3.25 249.12-0.3Q243.42 0.5 239.37 0.5L239.37 0.5Q233.97 0.5 231.72-2.63 229.47-5.75 229.47-12.35L229.47-12.35Q229.47-25.5 239.92-25.5L239.92-25.5Q244.97-25.5 247.47-22.68 249.97-19.85 249.97-13.8L249.97-13.8 249.77-10.95 233.27-10.95Q233.27-6.8 234.77-4.8 236.27-2.8 240-2.8 243.72-2.8 247.57-3.1ZM233.22-13.95L246.22-13.95Q246.22-18.55 244.75-20.45 243.27-22.35 239.95-22.35 236.62-22.35 234.95-20.35 233.27-18.35 233.22-13.95L233.22-13.95ZM273.47-17.45L273.47-17.45 273.47-4.65Q273.62-2.8 276.37-2.45L276.37-2.45 276.22 0.5Q272.27 0.5 270.27-1.5L270.27-1.5Q265.77 0.5 261.27 0.5L261.27 0.5Q257.82 0.5 256.02-1.45 254.22-3.4 254.22-7.05 254.22-10.7 256.07-12.43 257.92-14.15 261.87-14.55L261.87-14.55 269.72-15.3 269.72-17.45Q269.72-20 268.62-21.1 267.52-22.2 265.62-22.2L265.62-22.2Q261.62-22.2 257.32-21.7L257.32-21.7 255.77-21.55 255.62-24.4Q261.12-25.5 265.37-25.5 269.62-25.5 271.55-23.55 273.47-21.6 273.47-17.45ZM258.07-7.25L258.07-7.25Q258.07-2.65 261.87-2.65L261.87-2.65Q265.27-2.65 268.57-3.8L268.57-3.8 269.72-4.2 269.72-12.45 262.32-11.75Q260.07-11.55 259.07-10.45 258.07-9.35 258.07-7.25ZM284.62-20.3L284.62 0 280.87 0 280.87-25 284.57-25 284.57-23.25Q288.32-25.5 291.87-25.5L291.87-25.5Q296.52-25.5 298.37-22.95L298.37-22.95Q300.02-23.95 302.64-24.73 305.27-25.5 307.27-25.5L307.27-25.5Q312.27-25.5 313.99-22.83 315.72-20.15 315.72-13.2L315.72-13.2 315.72 0 311.97 0 311.97-13.1Q311.97-18.3 310.97-20.23 309.97-22.15 306.72-22.15L306.72-22.15Q305.07-22.15 303.32-21.68 301.57-21.2 300.62-20.75L300.62-20.75 299.67-20.3Q300.32-18.65 300.32-13L300.32-13 300.32 0 296.57 0 296.57-12.9Q296.57-18.3 295.59-20.23 294.62-22.15 291.32-22.15L291.32-22.15Q289.72-22.15 288.04-21.68 286.37-21.2 285.47-20.75L285.47-20.75 284.62-20.3ZM330.52-22.15L330.52-22.15Q325.07-22.15 325.07-18.35L325.07-18.35Q325.07-16.6 326.32-15.88 327.57-15.15 332.02-14.38 336.47-13.6 338.32-12.2 340.17-10.8 340.17-6.95 340.17-3.1 337.69-1.3 335.22 0.5 330.47 0.5L330.47 0.5Q327.37 0.5 323.17-0.2L323.17-0.2 321.67-0.45 321.87-3.7Q327.57-2.85 330.47-2.85 333.37-2.85 334.89-3.78 336.42-4.7 336.42-6.88 336.42-9.05 335.12-9.83 333.82-10.6 329.42-11.3 325.02-12 323.17-13.35 321.32-14.7 321.32-18.35 321.32-22 323.89-23.75 326.47-25.5 330.32-25.5L330.32-25.5Q333.37-25.5 337.97-24.8L337.97-24.8 339.37-24.55 339.27-21.35Q333.72-22.15 330.52-22.15ZM347.11 6.15L344.01 6.15 346.31-5.35 350.46-5.35 347.11 6.15ZM389.46-3.85L389.61-0.55Q384.46 0.5 380.36 0.5 376.26 0.5 373.73-0.63 371.21-1.75 369.83-4.13 368.46-6.5 367.93-9.58 367.41-12.65 367.41-17.25 367.41-21.85 367.93-24.98 368.46-28.1 369.83-30.5 371.21-32.9 373.71-34 376.21-35.1 380.21-35.1 384.21-35.1 389.61-34L389.61-34 389.46-30.75Q384.41-31.65 380.46-31.65L380.46-31.65Q374.96-31.65 373.18-28.38 371.41-25.1 371.41-17.2L371.41-17.2Q371.41-13.25 371.73-10.85 372.06-8.45 373.01-6.53 373.96-4.6 375.78-3.78 377.61-2.95 381.13-2.95 384.66-2.95 389.46-3.85L389.46-3.85ZM411.76-3.1L411.76-3.1 413.21-3.25 413.31-0.3Q407.61 0.5 403.56 0.5L403.56 0.5Q398.16 0.5 395.91-2.63 393.66-5.75 393.66-12.35L393.66-12.35Q393.66-25.5 404.11-25.5L404.11-25.5Q409.16-25.5 411.66-22.68 414.16-19.85 414.16-13.8L414.16-13.8 413.96-10.95 397.46-10.95Q397.46-6.8 398.96-4.8 400.46-2.8 404.18-2.8 407.91-2.8 411.76-3.1ZM397.41-13.95L410.41-13.95Q410.41-18.55 408.93-20.45 407.46-22.35 404.13-22.35 400.81-22.35 399.13-20.35 397.46-18.35 397.41-13.95L397.41-13.95ZM424.05 0L420.3 0 420.3-35.9 424.05-35.9 424.05 0ZM448.55-3.1L448.55-3.1 450-3.25 450.1-0.3Q444.4 0.5 440.35 0.5L440.35 0.5Q434.95 0.5 432.7-2.63 430.45-5.75 430.45-12.35L430.45-12.35Q430.45-25.5 440.9-25.5L440.9-25.5Q445.95-25.5 448.45-22.68 450.95-19.85 450.95-13.8L450.95-13.8 450.75-10.95 434.25-10.95Q434.25-6.8 435.75-4.8 437.25-2.8 440.98-2.8 444.7-2.8 448.55-3.1ZM434.2-13.95L447.2-13.95Q447.2-18.55 445.73-20.45 444.25-22.35 440.93-22.35 437.6-22.35 435.93-20.35 434.25-18.35 434.2-13.95L434.2-13.95ZM467.85-25.5L467.85-25.5Q472.9-25.5 474.92-22.63 476.95-19.75 476.95-12.55 476.95-5.35 474.42-2.43 471.9 0.5 465.15 0.5L465.15 0.5Q463.05 0.5 458.2 0.1L458.2 0.1 456.8-0.05 456.8-35.9 460.5-35.9 460.5-23.75Q464.3-25.5 467.85-25.5ZM465.1-2.85L465.1-2.85Q470-2.85 471.57-5.08 473.15-7.3 473.15-12.6 473.15-17.9 471.9-20.03 470.65-22.15 467.45-22.15L467.45-22.15Q464.55-22.15 461.5-21.05L461.5-21.05 460.5-20.7 460.5-3.1Q463.75-2.85 465.1-2.85ZM486.85 0L483.1 0 483.1-25 486.8-25 486.8-21.6Q491.15-24.6 495.95-25.55L495.95-25.55 495.95-21.75Q493.85-21.35 491.57-20.5 489.3-19.65 488.1-19L488.1-19 486.85-18.35 486.85 0ZM518.04-17.45L518.04-17.45 518.04-4.65Q518.19-2.8 520.94-2.45L520.94-2.45 520.79 0.5Q516.84 0.5 514.84-1.5L514.84-1.5Q510.34 0.5 505.84 0.5L505.84 0.5Q502.39 0.5 500.59-1.45 498.79-3.4 498.79-7.05 498.79-10.7 500.64-12.43 502.49-14.15 506.44-14.55L506.44-14.55 514.29-15.3 514.29-17.45Q514.29-20 513.19-21.1 512.09-22.2 510.19-22.2L510.19-22.2Q506.19-22.2 501.89-21.7L501.89-21.7 500.34-21.55 500.19-24.4Q505.69-25.5 509.94-25.5 514.19-25.5 516.12-23.55 518.04-21.6 518.04-17.45ZM502.64-7.25L502.64-7.25Q502.64-2.65 506.44-2.65L506.44-2.65Q509.84-2.65 513.14-3.8L513.14-3.8 514.29-4.2 514.29-12.45 506.89-11.75Q504.64-11.55 503.64-10.45 502.64-9.35 502.64-7.25ZM538.39-25L538.39-21.75 530.44-21.75 530.44-9.8Q530.44-5.5 531.07-4.15 531.69-2.8 534.04-2.8L534.04-2.8 538.49-3.1 538.74 0Q535.39 0.55 533.64 0.55L533.64 0.55Q529.74 0.55 528.24-1.35 526.74-3.25 526.74-8.6L526.74-8.6 526.74-21.75 523.19-21.75 523.19-25 526.74-25 526.74-32.65 530.44-32.65 530.44-25 538.39-25ZM546.74 0L542.99 0 542.99-25 546.74-25 546.74 0ZM546.74-30.65L542.99-30.65 542.99-35 546.74-35 546.74-30.65ZM557.68-20.3L557.68 0 553.93 0 553.93-25 557.63-25 557.63-23.25Q561.68-25.5 565.38-25.5L565.38-25.5Q570.38-25.5 572.11-22.8 573.83-20.1 573.83-13.2L573.83-13.2 573.83 0 570.13 0 570.13-13.1Q570.13-18.3 569.11-20.23 568.08-22.15 564.73-22.15L564.73-22.15Q563.13-22.15 561.36-21.68 559.58-21.2 558.63-20.75L558.63-20.75 557.68-20.3ZM590.43 11.75L590.43 11.75Q584.43 11.75 582.06 10.13 579.68 8.5 579.68 4.2L579.68 4.2Q579.68 2.15 580.58 0.88 581.48-0.4 583.63-2L583.63-2Q582.23-2.95 582.23-5.45L582.23-5.45Q582.23-6.3 583.48-8.6L583.48-8.6 583.93-9.4Q579.98-11.2 579.98-16.95L579.98-16.95Q579.98-25.5 589.33-25.5L589.33-25.5Q591.73-25.5 593.78-25L593.78-25 594.53-24.85 601.93-25.05 601.93-21.85 597.18-21.95Q598.83-20.3 598.83-16.95L598.83-16.95Q598.83-12.25 596.51-10.38 594.18-8.5 589.18-8.5L589.18-8.5Q587.83-8.5 586.73-8.7L586.73-8.7Q585.83-6.5 585.83-5.85L585.83-5.85Q585.83-4.3 586.78-3.93 587.73-3.55 592.53-3.55 597.33-3.55 599.43-2.05 601.53-0.55 601.53 3.8L601.53 3.8Q601.53 11.75 590.43 11.75ZM583.38 3.9L583.38 3.9Q583.38 6.55 584.86 7.58 586.33 8.6 590.31 8.6 594.28 8.6 596.01 7.5 597.73 6.4 597.73 3.83 597.73 1.25 596.48 0.5 595.23-0.25 591.58-0.25L591.58-0.25 586.18-0.5Q584.53 0.7 583.96 1.6 583.38 2.5 583.38 3.9ZM583.73-16.95Q583.73-14 585.06-12.75 586.38-11.5 589.43-11.5 592.48-11.5 593.78-12.75 595.08-14 595.08-16.98 595.08-19.95 593.78-21.2 592.48-22.45 589.43-22.45 586.38-22.45 585.06-21.18 583.73-19.9 583.73-16.95ZM625.18-31.15L614.53-31.15 614.53-34.6 639.53-34.6 639.53-31.15 628.98-31.15 628.98 0 625.18 0 625.18-31.15ZM643.22 0L639.47 0 639.47-25 643.17-25 643.17-21.6Q647.52-24.6 652.32-25.55L652.32-25.55 652.32-21.75Q650.22-21.35 647.95-20.5 645.67-19.65 644.47-19L644.47-19 643.22-18.35 643.22 0ZM674.42-17.45L674.42-17.45 674.42-4.65Q674.57-2.8 677.32-2.45L677.32-2.45 677.17 0.5Q673.22 0.5 671.22-1.5L671.22-1.5Q666.72 0.5 662.22 0.5L662.22 0.5Q658.77 0.5 656.97-1.45 655.17-3.4 655.17-7.05 655.17-10.7 657.02-12.43 658.87-14.15 662.82-14.55L662.82-14.55 670.67-15.3 670.67-17.45Q670.67-20 669.57-21.1 668.47-22.2 666.57-22.2L666.57-22.2Q662.57-22.2 658.27-21.7L658.27-21.7 656.72-21.55 656.57-24.4Q662.07-25.5 666.32-25.5 670.57-25.5 672.5-23.55 674.42-21.6 674.42-17.45ZM659.02-7.25L659.02-7.25Q659.02-2.65 662.82-2.65L662.82-2.65Q666.22-2.65 669.52-3.8L669.52-3.8 670.67-4.2 670.67-12.45 663.27-11.75Q661.02-11.55 660.02-10.45 659.02-9.35 659.02-7.25ZM697.32-35.9L701.02-35.9 701.02 0 697.32 0 697.32-1.7Q693.47 0.5 689.72 0.5L689.72 0.5Q687.72 0.5 686.22 0 684.72-0.5 683.42-1.8L683.42-1.8Q680.72-4.5 680.72-11.78 680.72-19.05 683.14-22.28 685.57-25.5 691.17-25.5L691.17-25.5Q694.07-25.5 697.32-24.85L697.32-24.85 697.32-35.9ZM686.32-4.5Q687.12-3.55 688.02-3.2 688.92-2.85 690.34-2.85 691.77-2.85 693.54-3.33 695.32-3.8 696.32-4.25L696.32-4.25 697.32-4.7 697.32-21.65Q694.12-22.25 691.37-22.25L691.37-22.25Q687.57-22.25 686.07-19.83 684.57-17.4 684.57-12.3L684.57-12.3Q684.57-6.5 686.32-4.5L686.32-4.5ZM712.02 0L708.27 0 708.27-25 712.02-25 712.02 0ZM712.02-30.65L708.27-30.65 708.27-35 712.02-35 712.02-30.65ZM732.16-25L732.16-21.75 724.21-21.75 724.21-9.8Q724.21-5.5 724.84-4.15 725.46-2.8 727.81-2.8L727.81-2.8 732.26-3.1 732.51 0Q729.16 0.55 727.41 0.55L727.41 0.55Q723.51 0.55 722.01-1.35 720.51-3.25 720.51-8.6L720.51-8.6 720.51-21.75 716.96-21.75 716.96-25 720.51-25 720.51-32.65 724.21-32.65 724.21-25 732.16-25ZM740.51 0L736.76 0 736.76-25 740.51-25 740.51 0ZM740.51-30.65L736.76-30.65 736.76-35 740.51-35 740.51-30.65ZM746.61-12.55Q746.61-19.4 749.06-22.45 751.51-25.5 757.33-25.5 763.16-25.5 765.58-22.45 768.01-19.4 768.01-12.55 768.01-5.7 765.71-2.6 763.41 0.5 757.31 0.5 751.21 0.5 748.91-2.6 746.61-5.7 746.61-12.55ZM750.46-12.63Q750.46-7.15 751.78-4.95 753.11-2.75 757.33-2.75 761.56-2.75 762.86-4.93 764.16-7.1 764.16-12.6 764.16-18.1 762.71-20.18 761.26-22.25 757.33-22.25 753.41-22.25 751.93-20.18 750.46-18.1 750.46-12.63ZM777.86-20.3L777.86 0 774.11 0 774.11-25 777.81-25 777.81-23.25Q781.86-25.5 785.56-25.5L785.56-25.5Q790.56-25.5 792.28-22.8 794.01-20.1 794.01-13.2L794.01-13.2 794.01 0 790.31 0 790.31-13.1Q790.31-18.3 789.28-20.23 788.26-22.15 784.91-22.15L784.91-22.15Q783.31-22.15 781.53-21.68 779.76-21.2 778.81-20.75L778.81-20.75 777.86-20.3Z" opacity="1" transform="matrix(1,0,0,1,0,0)" fill="#dcdcdc" class="slogan-text-1" data-fill-palette-color="secondary" id="text-1"></path></svg></g></svg></g></svg></g></svg></g><g><svg viewBox="0 0 79.65044570041765 71.66129687597214" height="71.66129687597214" width="79.65044570041765"><g><svg xmlns="http://www.w3.org/2000/svg" xmlns:xlink="http://www.w3.org/1999/xlink" version="1.1" x="0" y="0" viewBox="13.321000000000002 17 73.358 66" enable-background="new 0 0 100 100" xml:space="preserve" height="71.66129687597214" width="79.65044570041765" class="icon-icon-0" data-fill-palette-color="accent" id="icon-0"><g fill="#dcdcdc" data-fill-palette-color="accent"><polygon points="74.11,17 26.046,17 19,20.067 19,30 80,30 80,20.067  " fill="#dcdcdc" data-fill-palette-color="accent"></polygon><path d="M86.679 56l-9.764-25H70.98l7.479 25h0.003c0.003 0 0.007 0.354 0.015 0.441-0.26 2.004-1.973 3.466-4.049 3.466-2.167 0-3.847-1.907-3.983-3.907l0 0-5.467-25h-5.934l3.183 25 0 0c-0.137 2-1.865 3.898-4.032 3.898-2.22 0-4.08-1.898-4.136-3.898l0 0-1.063-25H50.05h-0.017-2.944l-1.07 25h0.017c-0.137 2-1.907 3.898-4.074 3.898-2.221 0-4.113-1.898-4.169-3.898l0 0 3.163-25h-5.934l-5.468 25 0 0c-0.137 2-1.817 3.996-3.984 3.996-2.077 0-3.79-1.638-4.049-3.645C21.528 56.265 21.533 56 21.535 56h0.005l7.48-25h-5.935l-9.764 25 0 0c0.056 2 1.57 4.154 3.792 4.154 0.821 0 1.887-0.067 1.887-0.484V83h61V59.769c2 0.356 1.552 0.386 2.308 0.386C84.528 60.154 86.622 58 86.679 56L86.679 56z" fill="#dcdcdc" data-fill-palette-color="accent"></path></g></svg></g></svg></g></svg></g></svg></g><defs></defs></svg><rect width="395.52" height="57.56996641706342" fill="none" stroke="none" visibility="hidden"></rect></g></svg></g></svg>