<svg xmlns="http://www.w3.org/2000/svg" version="1.1" xmlns:xlink="http://www.w3.org/1999/xlink" xmlns:svgjs="http://svgjs.dev/svgjs" width="128" height="128" viewBox="0 0 128 128"><g transform="matrix(0.8046875,0,0,0.8046875,12.506335372881338,18.209553583908672)"><svg viewBox="0 0 59 53" data-background-color="#282634" preserveAspectRatio="xMidYMid meet" height="114" width="128" xmlns="http://www.w3.org/2000/svg" xmlns:xlink="http://www.w3.org/1999/xlink"><g id="tight-bounds" transform="matrix(1,0,0,1,-0.0036289999999894462,-0.04433755009678464)"><svg viewBox="0 0 59.00725799999999 53.08867510019356" height="53.08867510019356" width="59.00725799999999"><g><svg viewBox="0 0 59.00725799999999 53.08867510019356" height="53.08867510019356" width="59.00725799999999"><g><svg viewBox="0 0 59.00725799999999 53.08867510019356" height="53.08867510019356" width="59.00725799999999"><g><svg viewBox="0 0 59.00725799999999 53.08867510019356" height="53.08867510019356" width="59.00725799999999"><g id="textblocktransform"><svg viewBox="0 0 59.00725799999999 53.08867510019356" height="53.08867510019356" width="59.00725799999999" id="textblock"><g><svg viewBox="0 0 59.00725799999999 53.08867510019356" height="53.08867510019356" width="59.00725799999999"><g><svg viewBox="0 0 59.00725799999999 53.08867510019356" height="53.08867510019356" width="59.00725799999999"><g><svg xmlns="http://www.w3.org/2000/svg" xmlns:xlink="http://www.w3.org/1999/xlink" version="1.1" x="0" y="0" viewBox="13.321000000000002 17 73.358 66" enable-background="new 0 0 100 100" xml:space="preserve" height="53.08867510019356" width="59.00725799999999" class="icon-icon-0" data-fill-palette-color="accent" id="icon-0"><g fill="#dcdcdc" data-fill-palette-color="accent"><polygon points="74.11,17 26.046,17 19,20.067 19,30 80,30 80,20.067  " fill="#dcdcdc" data-fill-palette-color="accent"></polygon><path d="M86.679 56l-9.764-25H70.98l7.479 25h0.003c0.003 0 0.007 0.354 0.015 0.441-0.26 2.004-1.973 3.466-4.049 3.466-2.167 0-3.847-1.907-3.983-3.907l0 0-5.467-25h-5.934l3.183 25 0 0c-0.137 2-1.865 3.898-4.032 3.898-2.22 0-4.08-1.898-4.136-3.898l0 0-1.063-25H50.05h-0.017-2.944l-1.07 25h0.017c-0.137 2-1.907 3.898-4.074 3.898-2.221 0-4.113-1.898-4.169-3.898l0 0 3.163-25h-5.934l-5.468 25 0 0c-0.137 2-1.817 3.996-3.984 3.996-2.077 0-3.79-1.638-4.049-3.645C21.528 56.265 21.533 56 21.535 56h0.005l7.48-25h-5.935l-9.764 25 0 0c0.056 2 1.57 4.154 3.792 4.154 0.821 0 1.887-0.067 1.887-0.484V83h61V59.769c2 0.356 1.552 0.386 2.308 0.386C84.528 60.154 86.622 58 86.679 56L86.679 56z" fill="#dcdcdc" data-fill-palette-color="accent"></path></g></svg></g></svg></g></svg></g></svg></g></svg></g></svg></g></svg></g><defs></defs></svg><rect width="59.00725799999999" height="53.08867510019356" fill="none" stroke="none" visibility="hidden"></rect></g></svg></g></svg>